<svg viewBox="0 0 1200 760" xmlns="http://www.w3.org/2000/svg" font-family="Segoe UI, Helvetica, Arial, sans-serif" role="img" aria-labelledby="t d">
<title id="t">Gambar 3.10 - Class Diagram</title>
<desc id="d">Diagram kelas domain InfraProv: IAM, lapisan mirror provider, lapisan abstraksi terpublikasi, Tier, Environment dengan tiga aturan, Workflow, dan Audit. CatalogHardeningVersion berelasi ke Catalog.</desc>
<rect x="0" y="0" width="1200" height="760" fill="#FFFFFF"/>
<rect x="14" y="16" width="250" height="300" rx="9" fill="#F7F7FA" stroke="#C9C9D2" stroke-width="1.1"/>
<rect x="120" y="5" width="44" height="22" rx="6" fill="#F3C3D2" stroke="#B9B9C4" stroke-width="0.8"/>
<text x="142.0" y="16.5" font-size="11" font-weight="700" text-anchor="middle" dominant-baseline="central" fill="#2B2B33">IAM</text>
<g>
<rect x="30" y="80" width="112" height="82" rx="5" fill="#E9DEF5" stroke="#9F86C9" stroke-width="1.2"/>
<path d="M30.6,100 h110.8" stroke="#9F86C9" stroke-width="1"/>
<rect x="30" y="80" width="112" height="20" rx="5" fill="#D7C4EE" stroke="none"/>
<rect x="30" y="94" width="112" height="6" fill="#D7C4EE"/>
<text x="86.0" y="90.5" font-size="11" font-weight="700" text-anchor="middle" dominant-baseline="central" fill="#2C2348">User</text>
<text x="39" y="110.0" font-size="9.3" dominant-baseline="central" fill="#2C2348">+ id</text>
<text x="39" y="124.0" font-size="9.3" dominant-baseline="central" fill="#2C2348">+ name</text>
<text x="39" y="138.0" font-size="9.3" dominant-baseline="central" fill="#2C2348">+ email</text>
<text x="39" y="152.0" font-size="9.3" dominant-baseline="central" fill="#2C2348">+ status</text>
</g>
<g>
<rect x="158" y="46" width="96" height="54" rx="5" fill="#E9DEF5" stroke="#9F86C9" stroke-width="1.2"/>
<path d="M158.6,66 h94.8" stroke="#9F86C9" stroke-width="1"/>
<rect x="158" y="46" width="96" height="20" rx="5" fill="#D7C4EE" stroke="none"/>
<rect x="158" y="60" width="96" height="6" fill="#D7C4EE"/>
<text x="206.0" y="56.5" font-size="11" font-weight="700" text-anchor="middle" dominant-baseline="central" fill="#2C2348">Role</text>
<text x="167" y="76.0" font-size="9.3" dominant-baseline="central" fill="#2C2348">+ id</text>
<text x="167" y="90.0" font-size="9.3" dominant-baseline="central" fill="#2C2348">+ role_name</text>
</g>
<g>
<rect x="158" y="178" width="96" height="54" rx="5" fill="#E9DEF5" stroke="#9F86C9" stroke-width="1.2"/>
<path d="M158.6,198 h94.8" stroke="#9F86C9" stroke-width="1"/>
<rect x="158" y="178" width="96" height="20" rx="5" fill="#D7C4EE" stroke="none"/>
<rect x="158" y="192" width="96" height="6" fill="#D7C4EE"/>
<text x="206.0" y="188.5" font-size="11" font-weight="700" text-anchor="middle" dominant-baseline="central" fill="#2C2348">Group</text>
<text x="167" y="208.0" font-size="9.3" dominant-baseline="central" fill="#2C2348">+ id</text>
<text x="167" y="222.0" font-size="9.3" dominant-baseline="central" fill="#2C2348">+ group_name</text>
</g>
<line x1="142" y1="121.0" x2="158" y2="73.0" stroke="#6B6B78" stroke-width="1.2"/>
<text x="150" y="114.0" font-size="8.5" text-anchor="middle" dominant-baseline="central" fill="#444" font-style="italic">*</text>
<text x="151" y="80.0" font-size="8.5" text-anchor="middle" dominant-baseline="central" fill="#444" font-style="italic">1</text>
<text x="150.0" y="94.0" font-size="8" text-anchor="middle" fill="#3A3A45">memiliki</text>
<line x1="142" y1="128" x2="158" y2="205.0" stroke="#6B6B78" stroke-width="1.2"/>
<text x="150" y="136" font-size="8.5" text-anchor="middle" dominant-baseline="central" fill="#444" font-style="italic">*</text>
<text x="151" y="198.0" font-size="8.5" text-anchor="middle" dominant-baseline="central" fill="#444" font-style="italic">1</text>
<text x="150" y="163.5" font-size="8" text-anchor="middle" fill="#3A3A45">tergabung</text>
<polyline points="158,224 148,224 148,152 142,152" fill="none" stroke="#6B6B78" stroke-width="1.2"/>
<text x="148" y="234" font-size="8.5" text-anchor="middle" dominant-baseline="central" fill="#444" font-style="italic">1</text>
<text x="140" y="160" font-size="8.5" text-anchor="middle" dominant-baseline="central" fill="#444" font-style="italic">1</text>
<text x="150" y="172" font-size="8" text-anchor="middle" fill="#3A3A45">dipimpin</text>
<rect x="280" y="16" width="330" height="350" rx="9" fill="#F7F7FA" stroke="#C9C9D2" stroke-width="1.1"/>
<rect x="295" y="5" width="170" height="22" rx="6" fill="#D7C4EE" stroke="#B9B9C4" stroke-width="0.8"/>
<text x="380.0" y="16.5" font-size="11" font-weight="700" text-anchor="middle" dominant-baseline="central" fill="#2B2B33">Lapisan mirror provider</text>
<g>
<rect x="300" y="132" width="126" height="96" rx="5" fill="#E9DEF5" stroke="#9F86C9" stroke-width="1.2"/>
<path d="M300.6,152 h124.8" stroke="#9F86C9" stroke-width="1"/>
<rect x="300" y="132" width="126" height="20" rx="5" fill="#D7C4EE" stroke="none"/>
<rect x="300" y="146" width="126" height="6" fill="#D7C4EE"/>
<text x="363.0" y="142.5" font-size="11" font-weight="700" text-anchor="middle" dominant-baseline="central" fill="#2C2348">Provider</text>
<text x="309" y="162.0" font-size="9.3" dominant-baseline="central" fill="#2C2348">+ id</text>
<text x="309" y="176.0" font-size="9.3" dominant-baseline="central" fill="#2C2348">+ provider_name</text>
<text x="309" y="190.0" font-size="9.3" dominant-baseline="central" fill="#2C2348">+ provider_type</text>
<text x="309" y="204.0" font-size="9.3" dominant-baseline="central" fill="#2C2348">+ endpoint</text>
<text x="309" y="218.0" font-size="9.3" dominant-baseline="central" fill="#2C2348">+ status</text>
</g>
<g>
<rect x="474" y="42" width="126" height="68" rx="5" fill="#E9DEF5" stroke="#9F86C9" stroke-width="1.2"/>
<path d="M474.6,62 h124.8" stroke="#9F86C9" stroke-width="1"/>
<rect x="474" y="42" width="126" height="20" rx="5" fill="#D7C4EE" stroke="none"/>
<rect x="474" y="56" width="126" height="6" fill="#D7C4EE"/>
<text x="537.0" y="52.5" font-size="11" font-weight="700" text-anchor="middle" dominant-baseline="central" fill="#2C2348">ProviderNode</text>
<text x="483" y="72.0" font-size="9.3" dominant-baseline="central" fill="#2C2348">+ id</text>
<text x="483" y="86.0" font-size="9.3" dominant-baseline="central" fill="#2C2348">+ node_name</text>
<text x="483" y="100.0" font-size="9.3" dominant-baseline="central" fill="#2C2348">+ status</text>
</g>
<g>
<rect x="474" y="116" width="126" height="54" rx="5" fill="#E9DEF5" stroke="#9F86C9" stroke-width="1.2"/>
<path d="M474.6,136 h124.8" stroke="#9F86C9" stroke-width="1"/>
<rect x="474" y="116" width="126" height="20" rx="5" fill="#D7C4EE" stroke="none"/>
<rect x="474" y="130" width="126" height="6" fill="#D7C4EE"/>
<text x="537.0" y="126.5" font-size="11" font-weight="700" text-anchor="middle" dominant-baseline="central" fill="#2C2348">ProviderTemplate</text>
<text x="483" y="146.0" font-size="9.3" dominant-baseline="central" fill="#2C2348">+ id</text>
<text x="483" y="160.0" font-size="9.3" dominant-baseline="central" fill="#2C2348">+ template_name</text>
</g>
<g>
<rect x="474" y="178" width="126" height="54" rx="5" fill="#E9DEF5" stroke="#9F86C9" stroke-width="1.2"/>
<path d="M474.6,198 h124.8" stroke="#9F86C9" stroke-width="1"/>
<rect x="474" y="178" width="126" height="20" rx="5" fill="#D7C4EE" stroke="none"/>
<rect x="474" y="192" width="126" height="6" fill="#D7C4EE"/>
<text x="537.0" y="188.5" font-size="11" font-weight="700" text-anchor="middle" dominant-baseline="central" fill="#2C2348">ProviderNetwork</text>
<text x="483" y="208.0" font-size="9.3" dominant-baseline="central" fill="#2C2348">+ id</text>
<text x="483" y="222.0" font-size="9.3" dominant-baseline="central" fill="#2C2348">+ bridge</text>
</g>
<g>
<rect x="474" y="240" width="126" height="54" rx="5" fill="#E9DEF5" stroke="#9F86C9" stroke-width="1.2"/>
<path d="M474.6,260 h124.8" stroke="#9F86C9" stroke-width="1"/>
<rect x="474" y="240" width="126" height="20" rx="5" fill="#D7C4EE" stroke="none"/>
<rect x="474" y="254" width="126" height="6" fill="#D7C4EE"/>
<text x="537.0" y="250.5" font-size="11" font-weight="700" text-anchor="middle" dominant-baseline="central" fill="#2C2348">ProviderDatastore</text>
<text x="483" y="270.0" font-size="9.3" dominant-baseline="central" fill="#2C2348">+ id</text>
<text x="483" y="284.0" font-size="9.3" dominant-baseline="central" fill="#2C2348">+ storage</text>
</g>
<g>
<rect x="474" y="300" width="126" height="68" rx="5" fill="#E9DEF5" stroke="#9F86C9" stroke-width="1.2"/>
<path d="M474.6,320 h124.8" stroke="#9F86C9" stroke-width="1"/>
<rect x="474" y="300" width="126" height="20" rx="5" fill="#D7C4EE" stroke="none"/>
<rect x="474" y="314" width="126" height="6" fill="#D7C4EE"/>
<text x="537.0" y="310.5" font-size="11" font-weight="700" text-anchor="middle" dominant-baseline="central" fill="#2C2348">ProviderVm</text>
<text x="483" y="330.0" font-size="9.3" dominant-baseline="central" fill="#2C2348">+ id</text>
<text x="483" y="344.0" font-size="9.3" dominant-baseline="central" fill="#2C2348">+ external_vmid</text>
<text x="483" y="358.0" font-size="9.3" dominant-baseline="central" fill="#2C2348">+ power_state</text>
</g>
<polyline points="426,180.0 452,180.0 452,76.0 474,76.0" fill="none" stroke="#6B6B78" stroke-width="1.2"/>
<text x="467" y="69.0" font-size="8.5" text-anchor="middle" dominant-baseline="central" fill="#444" font-style="italic">*</text>
<polyline points="426,180.0 452,180.0 452,143.0 474,143.0" fill="none" stroke="#6B6B78" stroke-width="1.2"/>
<text x="467" y="136.0" font-size="8.5" text-anchor="middle" dominant-baseline="central" fill="#444" font-style="italic">*</text>
<polyline points="426,180.0 452,180.0 452,205.0 474,205.0" fill="none" stroke="#6B6B78" stroke-width="1.2"/>
<text x="467" y="198.0" font-size="8.5" text-anchor="middle" dominant-baseline="central" fill="#444" font-style="italic">*</text>
<polyline points="426,180.0 452,180.0 452,267.0 474,267.0" fill="none" stroke="#6B6B78" stroke-width="1.2"/>
<text x="467" y="260.0" font-size="8.5" text-anchor="middle" dominant-baseline="central" fill="#444" font-style="italic">*</text>
<polyline points="426,180.0 452,180.0 452,334.0 474,334.0" fill="none" stroke="#6B6B78" stroke-width="1.2"/>
<text x="467" y="327.0" font-size="8.5" text-anchor="middle" dominant-baseline="central" fill="#444" font-style="italic">*</text>
<text x="434" y="173.0" font-size="8.5" text-anchor="middle" dominant-baseline="central" fill="#444" font-style="italic">1</text>
<rect x="624" y="16" width="562" height="350" rx="9" fill="#F7F7FA" stroke="#C9C9D2" stroke-width="1.1"/>
<rect x="800" y="5" width="210" height="22" rx="6" fill="#C9E6BB" stroke="#B9B9C4" stroke-width="0.8"/>
<text x="905.0" y="16.5" font-size="11" font-weight="700" text-anchor="middle" dominant-baseline="central" fill="#2B2B33">Lapisan abstraksi terpublikasi</text>
<g>
<rect x="638" y="46" width="112" height="54" rx="5" fill="#DEEFD5" stroke="#7DB269" stroke-width="1.2"/>
<path d="M638.6,66 h110.8" stroke="#7DB269" stroke-width="1"/>
<rect x="638" y="46" width="112" height="20" rx="5" fill="#C9E6BB" stroke="none"/>
<rect x="638" y="60" width="112" height="6" fill="#C9E6BB"/>
<text x="694.0" y="56.5" font-size="11" font-weight="700" text-anchor="middle" dominant-baseline="central" fill="#22331A">Node</text>
<text x="647" y="76.0" font-size="9.3" dominant-baseline="central" fill="#22331A">+ id</text>
<text x="647" y="90.0" font-size="9.3" dominant-baseline="central" fill="#22331A">+ node_name</text>
</g>
<g>
<rect x="638" y="118" width="112" height="68" rx="5" fill="#DEEFD5" stroke="#7DB269" stroke-width="1.2"/>
<path d="M638.6,138 h110.8" stroke="#7DB269" stroke-width="1"/>
<rect x="638" y="118" width="112" height="20" rx="5" fill="#C9E6BB" stroke="none"/>
<rect x="638" y="132" width="112" height="6" fill="#C9E6BB"/>
<text x="694.0" y="128.5" font-size="11" font-weight="700" text-anchor="middle" dominant-baseline="central" fill="#22331A">Catalog</text>
<text x="647" y="148.0" font-size="9.3" dominant-baseline="central" fill="#22331A">+ id</text>
<text x="647" y="162.0" font-size="9.3" dominant-baseline="central" fill="#22331A">+ catalog_name</text>
<text x="647" y="176.0" font-size="9.3" dominant-baseline="central" fill="#22331A">+ status</text>
</g>
<g>
<rect x="638" y="204" width="112" height="68" rx="5" fill="#DEEFD5" stroke="#7DB269" stroke-width="1.2"/>
<path d="M638.6,224 h110.8" stroke="#7DB269" stroke-width="1"/>
<rect x="638" y="204" width="112" height="20" rx="5" fill="#C9E6BB" stroke="none"/>
<rect x="638" y="218" width="112" height="6" fill="#C9E6BB"/>
<text x="694.0" y="214.5" font-size="11" font-weight="700" text-anchor="middle" dominant-baseline="central" fill="#22331A">Network</text>
<text x="647" y="234.0" font-size="9.3" dominant-baseline="central" fill="#22331A">+ id</text>
<text x="647" y="248.0" font-size="9.3" dominant-baseline="central" fill="#22331A">+ network_name</text>
<text x="647" y="262.0" font-size="9.3" dominant-baseline="central" fill="#22331A">+ status</text>
</g>
<g>
<rect x="638" y="290" width="112" height="68" rx="5" fill="#DEEFD5" stroke="#7DB269" stroke-width="1.2"/>
<path d="M638.6,310 h110.8" stroke="#7DB269" stroke-width="1"/>
<rect x="638" y="290" width="112" height="20" rx="5" fill="#C9E6BB" stroke="none"/>
<rect x="638" y="304" width="112" height="6" fill="#C9E6BB"/>
<text x="694.0" y="300.5" font-size="11" font-weight="700" text-anchor="middle" dominant-baseline="central" fill="#22331A">Datastore</text>
<text x="647" y="320.0" font-size="9.3" dominant-baseline="central" fill="#22331A">+ id</text>
<text x="647" y="334.0" font-size="9.3" dominant-baseline="central" fill="#22331A">+ datastore_name</text>
<text x="647" y="348.0" font-size="9.3" dominant-baseline="central" fill="#22331A">+ status</text>
</g>
<g>
<rect x="842" y="46" width="124" height="68" rx="5" fill="#E9DEF5" stroke="#9F86C9" stroke-width="1.2"/>
<path d="M842.6,66 h122.8" stroke="#9F86C9" stroke-width="1"/>
<rect x="842" y="46" width="124" height="20" rx="5" fill="#D7C4EE" stroke="none"/>
<rect x="842" y="60" width="124" height="6" fill="#D7C4EE"/>
<text x="904.0" y="56.5" font-size="11" font-weight="700" text-anchor="middle" dominant-baseline="central" fill="#2C2348">ProviderNode</text>
<text x="851" y="76.0" font-size="9.3" dominant-baseline="central" fill="#2C2348">+ id</text>
<text x="851" y="90.0" font-size="9.3" dominant-baseline="central" fill="#2C2348">+ node_name</text>
<text x="851" y="104.0" font-size="9.3" dominant-baseline="central" fill="#2C2348">+ status</text>
</g>
<g>
<rect x="842" y="120" width="124" height="54" rx="5" fill="#E9DEF5" stroke="#9F86C9" stroke-width="1.2"/>
<path d="M842.6,140 h122.8" stroke="#9F86C9" stroke-width="1"/>
<rect x="842" y="120" width="124" height="20" rx="5" fill="#D7C4EE" stroke="none"/>
<rect x="842" y="134" width="124" height="6" fill="#D7C4EE"/>
<text x="904.0" y="130.5" font-size="11" font-weight="700" text-anchor="middle" dominant-baseline="central" fill="#2C2348">ProviderTemplate</text>
<text x="851" y="150.0" font-size="9.3" dominant-baseline="central" fill="#2C2348">+ id</text>
<text x="851" y="164.0" font-size="9.3" dominant-baseline="central" fill="#2C2348">+ template_name</text>
</g>
<g>
<rect x="842" y="206" width="124" height="54" rx="5" fill="#E9DEF5" stroke="#9F86C9" stroke-width="1.2"/>
<path d="M842.6,226 h122.8" stroke="#9F86C9" stroke-width="1"/>
<rect x="842" y="206" width="124" height="20" rx="5" fill="#D7C4EE" stroke="none"/>
<rect x="842" y="220" width="124" height="6" fill="#D7C4EE"/>
<text x="904.0" y="216.5" font-size="11" font-weight="700" text-anchor="middle" dominant-baseline="central" fill="#2C2348">ProviderNetwork</text>
<text x="851" y="236.0" font-size="9.3" dominant-baseline="central" fill="#2C2348">+ id</text>
<text x="851" y="250.0" font-size="9.3" dominant-baseline="central" fill="#2C2348">+ bridge</text>
</g>
<g>
<rect x="842" y="290" width="124" height="54" rx="5" fill="#E9DEF5" stroke="#9F86C9" stroke-width="1.2"/>
<path d="M842.6,310 h122.8" stroke="#9F86C9" stroke-width="1"/>
<rect x="842" y="290" width="124" height="20" rx="5" fill="#D7C4EE" stroke="none"/>
<rect x="842" y="304" width="124" height="6" fill="#D7C4EE"/>
<text x="904.0" y="300.5" font-size="11" font-weight="700" text-anchor="middle" dominant-baseline="central" fill="#2C2348">ProviderDatastore</text>
<text x="851" y="320.0" font-size="9.3" dominant-baseline="central" fill="#2C2348">+ id</text>
<text x="851" y="334.0" font-size="9.3" dominant-baseline="central" fill="#2C2348">+ storage</text>
</g>
<g>
<rect x="1028" y="120" width="152" height="82" rx="5" fill="#E9DEF5" stroke="#9F86C9" stroke-width="1.2"/>
<path d="M1028.6,140 h150.8" stroke="#9F86C9" stroke-width="1"/>
<rect x="1028" y="120" width="152" height="20" rx="5" fill="#D7C4EE" stroke="none"/>
<rect x="1028" y="134" width="152" height="6" fill="#D7C4EE"/>
<text x="1104.0" y="130.5" font-size="11" font-weight="700" text-anchor="middle" dominant-baseline="central" fill="#2C2348">CatalogHardeningVersion</text>
<text x="1037" y="150.0" font-size="9.3" dominant-baseline="central" fill="#2C2348">+ id</text>
<text x="1037" y="164.0" font-size="9.3" dominant-baseline="central" fill="#2C2348">+ name</text>
<text x="1037" y="178.0" font-size="9.3" dominant-baseline="central" fill="#2C2348">+ version</text>
<text x="1037" y="192.0" font-size="9.3" dominant-baseline="central" fill="#2C2348">+ is_active</text>
</g>
<line x1="750" y1="73.0" x2="842" y2="80.0" stroke="#6B6B78" stroke-width="1.2" stroke-dasharray="5 4"/>
<text x="764" y="66.0" font-size="8.5" text-anchor="middle" dominant-baseline="central" fill="#444" font-style="italic">0..1</text>
<text x="835" y="73.0" font-size="8.5" text-anchor="middle" dominant-baseline="central" fill="#444" font-style="italic">1</text>
<text x="796.0" y="73.5" font-size="8" text-anchor="middle" fill="#5a5a66">alias</text>
<line x1="750" y1="152.0" x2="842" y2="147.0" stroke="#6B6B78" stroke-width="1.2" stroke-dasharray="5 4"/>
<text x="764" y="145.0" font-size="8.5" text-anchor="middle" dominant-baseline="central" fill="#444" font-style="italic">0..1</text>
<text x="835" y="140.0" font-size="8.5" text-anchor="middle" dominant-baseline="central" fill="#444" font-style="italic">1</text>
<text x="796.0" y="146.5" font-size="8" text-anchor="middle" fill="#5a5a66">alias</text>
<line x1="750" y1="238.0" x2="842" y2="233.0" stroke="#6B6B78" stroke-width="1.2" stroke-dasharray="5 4"/>
<text x="764" y="231.0" font-size="8.5" text-anchor="middle" dominant-baseline="central" fill="#444" font-style="italic">0..1</text>
<text x="835" y="226.0" font-size="8.5" text-anchor="middle" dominant-baseline="central" fill="#444" font-style="italic">1</text>
<text x="796.0" y="232.5" font-size="8" text-anchor="middle" fill="#5a5a66">alias</text>
<line x1="750" y1="324.0" x2="842" y2="317.0" stroke="#6B6B78" stroke-width="1.2" stroke-dasharray="5 4"/>
<text x="764" y="317.0" font-size="8.5" text-anchor="middle" dominant-baseline="central" fill="#444" font-style="italic">0..1</text>
<text x="835" y="310.0" font-size="8.5" text-anchor="middle" dominant-baseline="central" fill="#444" font-style="italic">1</text>
<text x="796.0" y="317.5" font-size="8" text-anchor="middle" fill="#5a5a66">alias</text>
<polyline points="750,152.0 796,152.0 796,360 1104.0,360 1104.0,202" fill="none" stroke="#2E7D32" stroke-width="1.6"/>
<text x="760" y="162.0" font-size="8.5" text-anchor="middle" dominant-baseline="central" fill="#444" font-style="italic">1</text>
<text x="1104.0" y="214" font-size="8.5" text-anchor="middle" dominant-baseline="central" fill="#444" font-style="italic">*</text>
<text x="905" y="356" font-size="8" text-anchor="middle" fill="#2E7D32">hardening</text>
<rect x="14" y="390" width="150" height="150" rx="9" fill="#F7F7FA" stroke="#C9C9D2" stroke-width="1.1"/>
<rect x="66" y="379" width="44" height="22" rx="6" fill="#F4E3A4" stroke="#B9B9C4" stroke-width="0.8"/>
<text x="88.0" y="390.5" font-size="11" font-weight="700" text-anchor="middle" dominant-baseline="central" fill="#2B2B33">Tier</text>
<g>
<rect x="30" y="422" width="116" height="96" rx="5" fill="#FBF1CC" stroke="#D6BB5E" stroke-width="1.2"/>
<path d="M30.6,442 h114.8" stroke="#D6BB5E" stroke-width="1"/>
<rect x="30" y="422" width="116" height="20" rx="5" fill="#F4E3A4" stroke="none"/>
<rect x="30" y="436" width="116" height="6" fill="#F4E3A4"/>
<text x="88.0" y="432.5" font-size="11" font-weight="700" text-anchor="middle" dominant-baseline="central" fill="#3A3212">Tier</text>
<text x="39" y="452.0" font-size="9.3" dominant-baseline="central" fill="#3A3212">+ id</text>
<text x="39" y="466.0" font-size="9.3" dominant-baseline="central" fill="#3A3212">+ tier_name</text>
<text x="39" y="480.0" font-size="9.3" dominant-baseline="central" fill="#3A3212">+ vcpu</text>
<text x="39" y="494.0" font-size="9.3" dominant-baseline="central" fill="#3A3212">+ ram_mb</text>
<text x="39" y="508.0" font-size="9.3" dominant-baseline="central" fill="#3A3212">+ disk_gb</text>
</g>
<rect x="178" y="380" width="372" height="212" rx="9" fill="#F7F7FA" stroke="#C9C9D2" stroke-width="1.1"/>
<rect x="200" y="369" width="190" height="22" rx="6" fill="#BFE7D9" stroke="#B9B9C4" stroke-width="0.8"/>
<text x="295.0" y="380.5" font-size="11" font-weight="700" text-anchor="middle" dominant-baseline="central" fill="#2B2B33">Environment dan tiga aturan</text>
<g>
<rect x="194" y="410" width="158" height="166" rx="5" fill="#D7F0E8" stroke="#6FC2AC" stroke-width="1.2"/>
<path d="M194.6,430 h156.8" stroke="#6FC2AC" stroke-width="1"/>
<rect x="194" y="410" width="158" height="20" rx="5" fill="#BFE7D9" stroke="none"/>
<rect x="194" y="424" width="158" height="6" fill="#BFE7D9"/>
<text x="273.0" y="420.5" font-size="11" font-weight="700" text-anchor="middle" dominant-baseline="central" fill="#123A30">Environment</text>
<text x="203" y="440.0" font-size="9.3" dominant-baseline="central" fill="#123A30">+ id</text>
<text x="203" y="454.0" font-size="9.3" dominant-baseline="central" fill="#123A30">+ environment_name</text>
<text x="203" y="468.0" font-size="9.3" dominant-baseline="central" fill="#123A30">+ expiry_type</text>
<text x="203" y="482.0" font-size="9.3" dominant-baseline="central" fill="#123A30">+ expiry_value</text>
<text x="203" y="496.0" font-size="9.3" dominant-baseline="central" fill="#123A30">+ grace_period_type</text>
<text x="203" y="510.0" font-size="9.3" dominant-baseline="central" fill="#123A30">+ grace_period_value</text>
<text x="203" y="524.0" font-size="9.3" dominant-baseline="central" fill="#123A30">+ approval_required</text>
<text x="203" y="538.0" font-size="9.3" dominant-baseline="central" fill="#123A30">+ allow_data_disk</text>
<text x="203" y="552.0" font-size="9.3" dominant-baseline="central" fill="#123A30">+ max_data_disks</text>
<text x="203" y="566.0" font-size="9.3" dominant-baseline="central" fill="#123A30">+ status</text>
</g>
<g>
<rect x="458" y="416" width="80" height="26" rx="5" fill="#F7D2D2" stroke="#CE8585" stroke-width="1.2"/>
<path d="M458.6,436 h78.8" stroke="#CE8585" stroke-width="1"/>
<rect x="458" y="416" width="80" height="20" rx="5" fill="#F0B6B6" stroke="none"/>
<rect x="458" y="430" width="80" height="6" fill="#F0B6B6"/>
<text x="498.0" y="426.5" font-size="11" font-weight="700" text-anchor="middle" dominant-baseline="central" fill="#3A1E1E">Provider</text>
</g>
<g>
<rect x="458" y="470" width="80" height="26" rx="5" fill="#F7D2D2" stroke="#CE8585" stroke-width="1.2"/>
<path d="M458.6,490 h78.8" stroke="#CE8585" stroke-width="1"/>
<rect x="458" y="470" width="80" height="20" rx="5" fill="#F0B6B6" stroke="none"/>
<rect x="458" y="484" width="80" height="6" fill="#F0B6B6"/>
<text x="498.0" y="480.5" font-size="11" font-weight="700" text-anchor="middle" dominant-baseline="central" fill="#3A1E1E">Node</text>
</g>
<g>
<rect x="458" y="524" width="80" height="26" rx="5" fill="#F7D2D2" stroke="#CE8585" stroke-width="1.2"/>
<path d="M458.6,544 h78.8" stroke="#CE8585" stroke-width="1"/>
<rect x="458" y="524" width="80" height="20" rx="5" fill="#F0B6B6" stroke="none"/>
<rect x="458" y="538" width="80" height="6" fill="#F0B6B6"/>
<text x="498.0" y="534.5" font-size="11" font-weight="700" text-anchor="middle" dominant-baseline="central" fill="#3A1E1E">Tier</text>
</g>
<line x1="352" y1="429.0" x2="458" y2="429.0" stroke="#6B6B78" stroke-width="1.2" stroke-dasharray="5 4"/>
<text x="360" y="422.0" font-size="8.5" text-anchor="middle" dominant-baseline="central" fill="#444" font-style="italic">*</text>
<text x="451" y="422.0" font-size="8.5" text-anchor="middle" dominant-baseline="central" fill="#444" font-style="italic">*</text>
<text x="405.0" y="424.0" font-size="7.2" text-anchor="middle" fill="#37564c">environment_provider_rules</text>
<line x1="352" y1="483.0" x2="458" y2="483.0" stroke="#6B6B78" stroke-width="1.2" stroke-dasharray="5 4"/>
<text x="360" y="476.0" font-size="8.5" text-anchor="middle" dominant-baseline="central" fill="#444" font-style="italic">*</text>
<text x="451" y="476.0" font-size="8.5" text-anchor="middle" dominant-baseline="central" fill="#444" font-style="italic">*</text>
<text x="405.0" y="478.0" font-size="7.2" text-anchor="middle" fill="#37564c">environment_node_rules</text>
<line x1="352" y1="537.0" x2="458" y2="537.0" stroke="#6B6B78" stroke-width="1.2" stroke-dasharray="5 4"/>
<text x="360" y="530.0" font-size="8.5" text-anchor="middle" dominant-baseline="central" fill="#444" font-style="italic">*</text>
<text x="451" y="530.0" font-size="8.5" text-anchor="middle" dominant-baseline="central" fill="#444" font-style="italic">*</text>
<text x="405.0" y="532.0" font-size="7.2" text-anchor="middle" fill="#37564c">environment_tier_rules</text>
<rect x="560" y="380" width="626" height="368" rx="9" fill="#F7F7FA" stroke="#C9C9D2" stroke-width="1.1"/>
<rect x="850" y="369" width="80" height="22" rx="6" fill="#F0B6B6" stroke="#B9B9C4" stroke-width="0.8"/>
<text x="890.0" y="380.5" font-size="11" font-weight="700" text-anchor="middle" dominant-baseline="central" fill="#2B2B33">Workflow</text>
<g>
<rect x="578" y="422" width="122" height="54" rx="5" fill="#F7D2D2" stroke="#CE8585" stroke-width="1.2"/>
<path d="M578.6,442 h120.8" stroke="#CE8585" stroke-width="1"/>
<rect x="578" y="422" width="122" height="20" rx="5" fill="#F0B6B6" stroke="none"/>
<rect x="578" y="436" width="122" height="6" fill="#F0B6B6"/>
<text x="639.0" y="432.5" font-size="11" font-weight="700" text-anchor="middle" dominant-baseline="central" fill="#3A1E1E">ProvisionRequest</text>
<text x="587" y="452.0" font-size="9.3" dominant-baseline="central" fill="#3A1E1E">+ id</text>
<text x="587" y="466.0" font-size="9.3" dominant-baseline="central" fill="#3A1E1E">+ status</text>
</g>
<g>
<rect x="744" y="402" width="158" height="138" rx="5" fill="#F7D2D2" stroke="#CE8585" stroke-width="1.2"/>
<path d="M744.6,422 h156.8" stroke="#CE8585" stroke-width="1"/>
<rect x="744" y="402" width="158" height="20" rx="5" fill="#F0B6B6" stroke="none"/>
<rect x="744" y="416" width="158" height="6" fill="#F0B6B6"/>
<text x="823.0" y="412.5" font-size="11" font-weight="700" text-anchor="middle" dominant-baseline="central" fill="#3A1E1E">ApprovalRequest</text>
<text x="753" y="432.0" font-size="9.3" dominant-baseline="central" fill="#3A1E1E">+ id</text>
<text x="753" y="446.0" font-size="9.3" dominant-baseline="central" fill="#3A1E1E">+ request_type</text>
<text x="753" y="460.0" font-size="9.3" dominant-baseline="central" fill="#3A1E1E">+ reference_id</text>
<text x="753" y="474.0" font-size="9.3" dominant-baseline="central" fill="#3A1E1E">+ status</text>
<text x="753" y="488.0" font-size="9.3" dominant-baseline="central" fill="#3A1E1E">+ action_type</text>
<text x="753" y="502.0" font-size="9.3" dominant-baseline="central" fill="#3A1E1E">+ action_reason</text>
<text x="753" y="516.0" font-size="9.3" dominant-baseline="central" fill="#3A1E1E">+ action_date</text>
<text x="753" y="530.0" font-size="9.3" dominant-baseline="central" fill="#3A1E1E">+ payload</text>
</g>
<g>
<rect x="1016" y="416" width="150" height="96" rx="5" fill="#F7D2D2" stroke="#CE8585" stroke-width="1.2"/>
<path d="M1016.6,436 h148.8" stroke="#CE8585" stroke-width="1"/>
<rect x="1016" y="416" width="150" height="20" rx="5" fill="#F0B6B6" stroke="none"/>
<rect x="1016" y="430" width="150" height="6" fill="#F0B6B6"/>
<text x="1091.0" y="426.5" font-size="11" font-weight="700" text-anchor="middle" dominant-baseline="central" fill="#3A1E1E">Inventory</text>
<text x="1025" y="446.0" font-size="9.3" dominant-baseline="central" fill="#3A1E1E">+ id</text>
<text x="1025" y="460.0" font-size="9.3" dominant-baseline="central" fill="#3A1E1E">+ vm_name</text>
<text x="1025" y="474.0" font-size="9.3" dominant-baseline="central" fill="#3A1E1E">+ external_vmid</text>
<text x="1025" y="488.0" font-size="9.3" dominant-baseline="central" fill="#3A1E1E">+ status</text>
<text x="1025" y="502.0" font-size="9.3" dominant-baseline="central" fill="#3A1E1E">+ expiry_date</text>
</g>
<g>
<rect x="1030" y="612" width="122" height="68" rx="5" fill="#F7D2D2" stroke="#CE8585" stroke-width="1.2"/>
<path d="M1030.6,632 h120.8" stroke="#CE8585" stroke-width="1"/>
<rect x="1030" y="612" width="122" height="20" rx="5" fill="#F0B6B6" stroke="none"/>
<rect x="1030" y="626" width="122" height="6" fill="#F0B6B6"/>
<text x="1091.0" y="622.5" font-size="11" font-weight="700" text-anchor="middle" dominant-baseline="central" fill="#3A1E1E">InventoryDisk</text>
<text x="1039" y="642.0" font-size="9.3" dominant-baseline="central" fill="#3A1E1E">+ id</text>
<text x="1039" y="656.0" font-size="9.3" dominant-baseline="central" fill="#3A1E1E">+ disk_index</text>
<text x="1039" y="670.0" font-size="9.3" dominant-baseline="central" fill="#3A1E1E">+ size_gb</text>
</g>
<g>
<rect x="858" y="600" width="162" height="82" rx="5" fill="#E9DEF5" stroke="#9F86C9" stroke-width="1.2"/>
<path d="M858.6,620 h160.8" stroke="#9F86C9" stroke-width="1"/>
<rect x="858" y="600" width="162" height="20" rx="5" fill="#D7C4EE" stroke="none"/>
<rect x="858" y="614" width="162" height="6" fill="#D7C4EE"/>
<text x="939.0" y="610.5" font-size="11" font-weight="700" text-anchor="middle" dominant-baseline="central" fill="#2C2348">CatalogHardeningVersion</text>
<text x="867" y="630.0" font-size="9.3" dominant-baseline="central" fill="#2C2348">+ id</text>
<text x="867" y="644.0" font-size="9.3" dominant-baseline="central" fill="#2C2348">+ name</text>
<text x="867" y="658.0" font-size="9.3" dominant-baseline="central" fill="#2C2348">+ version</text>
<text x="867" y="672.0" font-size="9.3" dominant-baseline="central" fill="#2C2348">+ is_active</text>
</g>
<g>
<rect x="578" y="498" width="102" height="26" rx="5" fill="#F7D2D2" stroke="#CE8585" stroke-width="1.2"/>
<path d="M578.6,518 h100.8" stroke="#CE8585" stroke-width="1"/>
<rect x="578" y="498" width="102" height="20" rx="5" fill="#F0B6B6" stroke="none"/>
<rect x="578" y="512" width="102" height="6" fill="#F0B6B6"/>
<text x="629.0" y="508.5" font-size="11" font-weight="700" text-anchor="middle" dominant-baseline="central" fill="#3A1E1E">Environment</text>
</g>
<g>
<rect x="578" y="528" width="102" height="26" rx="5" fill="#F7D2D2" stroke="#CE8585" stroke-width="1.2"/>
<path d="M578.6,548 h100.8" stroke="#CE8585" stroke-width="1"/>
<rect x="578" y="528" width="102" height="20" rx="5" fill="#F0B6B6" stroke="none"/>
<rect x="578" y="542" width="102" height="6" fill="#F0B6B6"/>
<text x="629.0" y="538.5" font-size="11" font-weight="700" text-anchor="middle" dominant-baseline="central" fill="#3A1E1E">Node</text>
</g>
<g>
<rect x="578" y="558" width="102" height="26" rx="5" fill="#F7D2D2" stroke="#CE8585" stroke-width="1.2"/>
<path d="M578.6,578 h100.8" stroke="#CE8585" stroke-width="1"/>
<rect x="578" y="558" width="102" height="20" rx="5" fill="#F0B6B6" stroke="none"/>
<rect x="578" y="572" width="102" height="6" fill="#F0B6B6"/>
<text x="629.0" y="568.5" font-size="11" font-weight="700" text-anchor="middle" dominant-baseline="central" fill="#3A1E1E">Catalog</text>
</g>
<g>
<rect x="578" y="588" width="102" height="26" rx="5" fill="#F7D2D2" stroke="#CE8585" stroke-width="1.2"/>
<path d="M578.6,608 h100.8" stroke="#CE8585" stroke-width="1"/>
<rect x="578" y="588" width="102" height="20" rx="5" fill="#F0B6B6" stroke="none"/>
<rect x="578" y="602" width="102" height="6" fill="#F0B6B6"/>
<text x="629.0" y="598.5" font-size="11" font-weight="700" text-anchor="middle" dominant-baseline="central" fill="#3A1E1E">Tier</text>
</g>
<g>
<rect x="578" y="618" width="102" height="26" rx="5" fill="#F7D2D2" stroke="#CE8585" stroke-width="1.2"/>
<path d="M578.6,638 h100.8" stroke="#CE8585" stroke-width="1"/>
<rect x="578" y="618" width="102" height="20" rx="5" fill="#F0B6B6" stroke="none"/>
<rect x="578" y="632" width="102" height="6" fill="#F0B6B6"/>
<text x="629.0" y="628.5" font-size="11" font-weight="700" text-anchor="middle" dominant-baseline="central" fill="#3A1E1E">Network</text>
</g>
<g>
<rect x="578" y="648" width="102" height="26" rx="5" fill="#F7D2D2" stroke="#CE8585" stroke-width="1.2"/>
<path d="M578.6,668 h100.8" stroke="#CE8585" stroke-width="1"/>
<rect x="578" y="648" width="102" height="20" rx="5" fill="#F0B6B6" stroke="none"/>
<rect x="578" y="662" width="102" height="6" fill="#F0B6B6"/>
<text x="629.0" y="658.5" font-size="11" font-weight="700" text-anchor="middle" dominant-baseline="central" fill="#3A1E1E">Datastore</text>
</g>
<line x1="700" y1="449.0" x2="744" y2="471.0" stroke="#6B6B78" stroke-width="1.2"/>
<text x="708" y="442.0" font-size="8.5" text-anchor="middle" dominant-baseline="central" fill="#444" font-style="italic">1</text>
<text x="730" y="464.0" font-size="8.5" text-anchor="middle" dominant-baseline="central" fill="#444" font-style="italic">0..1</text>
<text x="722.0" y="471.0" font-size="8" text-anchor="middle" fill="#3A3A45">mengajukan</text>
<polyline points="639.0,422 639.0,392 1136,392 1136,416" fill="none" stroke="#6B6B78" stroke-width="1.2"/>
<text x="631.0" y="415" font-size="8.5" text-anchor="middle" dominant-baseline="central" fill="#444" font-style="italic">1</text>
<text x="1144" y="409" font-size="8.5" text-anchor="middle" dominant-baseline="central" fill="#444" font-style="italic">*</text>
<text x="887.5" y="388" font-size="8" text-anchor="middle" fill="#3A3A45">menghasilkan</text>
<line x1="902" y1="455" x2="1016" y2="455" stroke="#6B6B78" stroke-width="1.2"/>
<text x="910" y="448" font-size="8.5" text-anchor="middle" dominant-baseline="central" fill="#444" font-style="italic">*</text>
<text x="1009" y="448" font-size="8.5" text-anchor="middle" dominant-baseline="central" fill="#444" font-style="italic">1</text>
<text x="959.0" y="451" font-size="8" text-anchor="middle" fill="#3A3A45">siklus hidup</text>
<polyline points="1136,512 1136,562.0 1091.0,562.0 1091.0,612" fill="none" stroke="#6B6B78" stroke-width="1.2"/>
<text x="1144" y="520" font-size="8.5" text-anchor="middle" dominant-baseline="central" fill="#444" font-style="italic">1</text>
<text x="1099.0" y="605" font-size="8.5" text-anchor="middle" dominant-baseline="central" fill="#444" font-style="italic">*</text>
<polyline points="1036,512 1036,560 939.0,560 939.0,600" fill="none" stroke="#6B6B78" stroke-width="1.2"/>
<text x="1028" y="520" font-size="8.5" text-anchor="middle" dominant-baseline="central" fill="#444" font-style="italic">1</text>
<text x="939.0" y="592" font-size="8.5" text-anchor="middle" dominant-baseline="central" fill="#444" font-style="italic">0..1</text>
<text x="987.5" y="556" font-size="8" text-anchor="middle" fill="#3A3A45">hardened_version</text>
<polyline points="639.0,476 639.0,498 566,498 566,660" fill="none" stroke="#6B6B78" stroke-width="1.2"/>
<text x="631.0" y="484" font-size="8.5" text-anchor="middle" dominant-baseline="central" fill="#444" font-style="italic">*</text>
<line x1="566" y1="511.0" x2="578" y2="511.0" stroke="#6B6B78" stroke-width="1.2"/>
<text x="571" y="505.0" font-size="8.5" text-anchor="middle" dominant-baseline="central" fill="#444" font-style="italic">1</text>
<line x1="566" y1="541.0" x2="578" y2="541.0" stroke="#6B6B78" stroke-width="1.2"/>
<text x="571" y="535.0" font-size="8.5" text-anchor="middle" dominant-baseline="central" fill="#444" font-style="italic">1</text>
<line x1="566" y1="571.0" x2="578" y2="571.0" stroke="#6B6B78" stroke-width="1.2"/>
<text x="571" y="565.0" font-size="8.5" text-anchor="middle" dominant-baseline="central" fill="#444" font-style="italic">1</text>
<line x1="566" y1="601.0" x2="578" y2="601.0" stroke="#6B6B78" stroke-width="1.2"/>
<text x="571" y="595.0" font-size="8.5" text-anchor="middle" dominant-baseline="central" fill="#444" font-style="italic">1</text>
<line x1="566" y1="631.0" x2="578" y2="631.0" stroke="#6B6B78" stroke-width="1.2"/>
<text x="571" y="625.0" font-size="8.5" text-anchor="middle" dominant-baseline="central" fill="#444" font-style="italic">1</text>
<line x1="566" y1="661.0" x2="578" y2="661.0" stroke="#6B6B78" stroke-width="1.2"/>
<text x="571" y="655.0" font-size="8.5" text-anchor="middle" dominant-baseline="central" fill="#444" font-style="italic">1</text>
<rect x="120" y="600" width="320" height="148" rx="9" fill="#F7F7FA" stroke="#C9C9D2" stroke-width="1.1"/>
<rect x="254" y="589" width="52" height="22" rx="6" fill="#D7C4EE" stroke="#B9B9C4" stroke-width="0.8"/>
<text x="280.0" y="600.5" font-size="11" font-weight="700" text-anchor="middle" dominant-baseline="central" fill="#2B2B33">Audit</text>
<g>
<rect x="136" y="628" width="150" height="96" rx="5" fill="#E9DEF5" stroke="#9F86C9" stroke-width="1.2"/>
<path d="M136.6,648 h148.8" stroke="#9F86C9" stroke-width="1"/>
<rect x="136" y="628" width="150" height="20" rx="5" fill="#D7C4EE" stroke="none"/>
<rect x="136" y="642" width="150" height="6" fill="#D7C4EE"/>
<text x="211.0" y="638.5" font-size="11" font-weight="700" text-anchor="middle" dominant-baseline="central" fill="#2C2348">AuditLog</text>
<text x="145" y="658.0" font-size="9.3" dominant-baseline="central" fill="#2C2348">+ id</text>
<text x="145" y="672.0" font-size="9.3" dominant-baseline="central" fill="#2C2348">+ action_type</text>
<text x="145" y="686.0" font-size="9.3" dominant-baseline="central" fill="#2C2348">+ description</text>
<text x="145" y="700.0" font-size="9.3" dominant-baseline="central" fill="#2C2348">+ metadata</text>
<text x="145" y="714.0" font-size="9.3" dominant-baseline="central" fill="#2C2348">+ created_at</text>
</g>
<g>
<rect x="320" y="636" width="108" height="82" rx="5" fill="#E9DEF5" stroke="#9F86C9" stroke-width="1.2"/>
<path d="M320.6,656 h106.8" stroke="#9F86C9" stroke-width="1"/>
<rect x="320" y="636" width="108" height="20" rx="5" fill="#D7C4EE" stroke="none"/>
<rect x="320" y="650" width="108" height="6" fill="#D7C4EE"/>
<text x="374.0" y="646.5" font-size="11" font-weight="700" text-anchor="middle" dominant-baseline="central" fill="#2C2348">User</text>
<text x="329" y="666.0" font-size="9.3" dominant-baseline="central" fill="#2C2348">+ id</text>
<text x="329" y="680.0" font-size="9.3" dominant-baseline="central" fill="#2C2348">+ name</text>
<text x="329" y="694.0" font-size="9.3" dominant-baseline="central" fill="#2C2348">+ email</text>
<text x="329" y="708.0" font-size="9.3" dominant-baseline="central" fill="#2C2348">+ status</text>
</g>
<line x1="286" y1="676.0" x2="320" y2="677.0" stroke="#6B6B78" stroke-width="1.2"/>
<text x="294" y="669.0" font-size="8.5" text-anchor="middle" dominant-baseline="central" fill="#444" font-style="italic">*</text>
<text x="313" y="670.0" font-size="8.5" text-anchor="middle" dominant-baseline="central" fill="#444" font-style="italic">1</text>
<text x="303.0" y="672.5" font-size="8" text-anchor="middle" fill="#3A3A45">tercatat</text>
</svg>
